<svg xmlns="http://www.w3.org/2000/svg" xmlns:xlink="http://www.w3.org/1999/xlink" version="1.1" x="0px" y="0px" viewBox="0 0 64 80" enable-background="new 0 0 64 64" xml:space="preserve"><g><g><path d="M25.0957031,46.8359375l-5.3359375,5.3355713V7c0-1.1044922-0.8955078-2-2-2s-2,0.8955078-2,2v45.1715088    l-5.3359375-5.3355713c-0.78125-0.78125-2.046875-0.78125-2.828125,0c-0.78125,0.7807617-0.78125,2.0473633,0,2.828125    l8.7487183,8.7487183c0.0933228,0.0935059,0.1963501,0.177063,0.3066406,0.2507324    c0.0475464,0.0317383,0.098999,0.0533447,0.1484375,0.0805664c0.0646362,0.0357056,0.1270142,0.074646,0.1957397,0.1030884    c0.0650024,0.0268555,0.1326904,0.0422363,0.199646,0.0619507c0.0578613,0.0171509,0.1133423,0.0394897,0.1733398,0.0513916    C17.4974365,58.9862061,17.628479,59,17.7597656,59s0.2623291-0.0137939,0.3915405-0.0394897    c0.0599976-0.0119019,0.1154785-0.0342407,0.1733398-0.0513916c0.0669556-0.0197144,0.1346436-0.0350952,0.199646-0.0619507    c0.0687256-0.0284424,0.1311035-0.0673828,0.1957397-0.1030884c0.0494385-0.0272217,0.1008911-0.0488281,0.1484375-0.0805664    c0.1102905-0.0736694,0.2133179-0.1572266,0.3066406-0.2507324l8.7487183-8.7487183    c0.78125-0.7807617,0.78125-2.0473633,0-2.828125C27.1425781,46.0546875,25.8769531,46.0546875,25.0957031,46.8359375z"/><path d="M54.9902344,10.25h-31.25c-1.1044922,0-2,0.8955078-2,2s0.8955078,2,2,2h31.25c1.1044922,0,2-0.8955078,2-2    S56.0947266,10.25,54.9902344,10.25z"/><path d="M49.4902344,19.75h-25.75c-1.1044922,0-2,0.8955078-2,2s0.8955078,2,2,2h25.75c1.1044922,0,2-0.8955078,2-2    S50.5947266,19.75,49.4902344,19.75z"/><path d="M43.9902344,29.25h-20.25c-1.1044922,0-2,0.8955078-2,2s0.8955078,2,2,2h20.25c1.1044922,0,2-0.8955078,2-2    S45.0947266,29.25,43.9902344,29.25z"/><path d="M38.4902344,38.75h-14.75c-1.1044922,0-2,0.8955078-2,2s0.8955078,2,2,2h14.75c1.1044922,0,2-0.8955078,2-2    S39.5947266,38.75,38.4902344,38.75z"/></g></g></svg>